<?xml version="1.0"?>
<svg xmlns="http://www.w3.org/2000/svg" xmlns:xlink="http://www.w3.org/1999/xlink" xmlns:svgjs="http://svgjs.com/svgjs" version="1.1" width="512" height="512" x="0" y="0" viewBox="0 0 512 512" style="enable-background:new 0 0 512 512" xml:space="preserve" class=""><g><g xmlns="http://www.w3.org/2000/svg"><path d="m416.161 504.5h-320.322c-22.058 0-39.94-17.882-39.94-39.94v-325.502c0-22.058 17.882-39.94 39.94-39.94h320.322c22.058 0 39.94 17.882 39.94 39.94v325.502c0 22.058-17.881 39.94-39.94 39.94z" fill="#365e7d" data-original="#365e7d" style="" class=""/><path d="m416.161 99.118h-24.569c22.058 0 39.94 17.882 39.94 39.94v325.502c0 22.058-17.882 39.94-39.94 39.94h24.569c22.058 0 39.94-17.882 39.94-39.94v-325.502c.001-22.059-17.881-39.94-39.94-39.94z" fill="#2b4d66" data-original="#2b4d66" style="" class=""/><path d="m142.203 56.223 113.797 360.458 113.797-360.458z" fill="#d0cee7" data-original="#d0cee7" style="" class=""/><path d="m360.344 86.165 9.453-29.942h-26.428z" fill="#beb9dd" data-original="#beb9dd" style=""/><path d="m256 116.694 58.578-70.331h-117.156z" fill="#365e7d" data-original="#365e7d" style="" class=""/><path d="m197.422 46.363h117.156l32.368-38.863h-181.892z" fill="#4a80aa" data-original="#4a80aa" style="" class=""/><path d="m322.603 7.5-32.368 38.863h24.343l32.359-38.851-.006-.012z" fill="#407093" data-original="#407093" style="" class=""/><path d="m189.388 7.5 32.368 38.863h-24.343l-32.359-38.851.005-.012z" fill="#407093" data-original="#407093" style="" class=""/><path d="m294.709 309.744-38.709 106.937-38.709-106.937 17.962-194.283h41.494z" fill="#dd636e" data-original="#dd636e" style="" class=""/><path d="m276.747 115.461h-19.678l15.566 168.367c.583 6.304-.232 12.658-2.387 18.611l-27.8 76.801 13.552 37.441 38.709-106.937z" fill="#da4a54" data-original="#da4a54" style="" class=""/><path d="m256 116.694-90.946-109.194-22.851 48.723 77.907 86.097z" fill="#f9f6f9" data-original="#f9f6f9" style="" class=""/><path d="m256 116.694 90.946-109.194 22.851 48.723-77.907 86.097z" fill="#f9f6f9" data-original="#f9f6f9" style="" class=""/><path d="m328.383 29.788 25.166 44.391 16.248-17.956-22.851-48.723z" fill="#dddaec" data-original="#dddaec" style="" class=""/><path d="m142.203 56.223-51.306 79.666 51.306 23.826-22.846 62.923 136.643 194.043z" fill="#4a80aa" data-original="#4a80aa" style="" class=""/><path d="m369.797 56.223 51.306 79.666-51.306 23.826 22.846 62.923-136.643 194.043z" fill="#4a80aa" data-original="#4a80aa" style="" class=""/><path d="m369.797 56.223-9.453 29.942 34.978 61.697 25.782-11.973z" fill="#407093" data-original="#407093" style="" class=""/><path d="m414.935 435.521h-104.726c-3.407 0-6.168-2.762-6.168-6.168v-15.673c0-3.407 2.762-6.168 6.168-6.168h104.726c3.407 0 6.168 2.762 6.168 6.168v15.672c0 3.408-2.761 6.169-6.168 6.169z" fill="#4a80aa" data-original="#4a80aa" style="" class=""/><path d="m414.935 407.512h-18.608c3.407 0 6.169 2.762 6.169 6.169v15.672c0 3.407-2.762 6.169-6.169 6.169h18.608c3.407 0 6.169-2.762 6.169-6.169v-15.673c0-3.406-2.762-6.168-6.169-6.168z" fill="#407093" data-original="#407093" style="" class=""/><g><path d="m416.161 91.617h-14.649l-25.139-39.034-22.637-48.268c-1.173-2.5-3.816-4.313-6.783-4.315-.002 0-.005 0-.007 0h-110.197c-4.142 0-7.5 3.357-7.5 7.5s3.358 7.5 7.5 7.5h94.19l-19.875 23.863h-110.127l-19.876-23.863h25.701c4.142 0 7.5-3.357 7.5-7.5s-3.358-7.5-7.5-7.5h-41.708c-.001 0-.002 0-.004 0-2.968.002-5.617 1.82-6.787 4.315l-22.638 48.271-25.137 39.031h-14.649c-26.159 0-47.44 21.281-47.44 47.44v325.503c0 26.159 21.282 47.44 47.44 47.44h31.371c4.142 0 7.5-3.357 7.5-7.5s-3.358-7.5-7.5-7.5h-31.371c-17.888 0-32.44-14.553-32.44-32.44v-325.502c0-17.888 14.553-32.44 32.44-32.44h4.989l-16.237 25.211c-1.174 1.822-1.501 4.064-.898 6.147.604 2.082 2.079 3.802 4.045 4.716l45.068 20.929-20.5 56.458c-.837 2.305-.494 4.873.917 6.878l136.645 194.043c2.955 4.19 9.246 4.27 12.265 0l104.655-148.619c2.385-3.387 1.573-8.065-1.813-10.45-3.387-2.386-8.065-1.571-10.45 1.813l-76.813 109.081 94.43-299.111 37.996 58.998-43.499 20.2c-3.529 1.64-5.219 5.705-3.891 9.362l21.512 59.245-12.211 17.34c-2.385 3.387-1.573 8.065 1.813 10.45 3.389 2.386 8.066 1.572 10.45-1.813l14.464-20.54c1.412-2.005 1.755-4.573.918-6.878l-20.499-56.458 45.068-20.929c1.967-.914 3.441-2.634 4.045-4.716.604-2.083.275-4.325-.898-6.147l-16.237-25.211h4.989c17.888 0 32.44 14.553 32.44 32.44v325.503c0 17.888-14.553 32.44-32.44 32.44h-258.965c-4.142 0-7.5 3.357-7.5 7.5s3.358 7.5 7.5 7.5h258.964c26.159 0 47.44-21.281 47.44-47.44v-325.502c0-26.16-21.281-47.441-47.44-47.441zm-160.161 34.292 15.184 10.842 14.797 160.052-29.981 94.967-29.981-94.965 14.797-160.054zm41.632 133.988-10.32-111.63.22.157c3.111 2.222 7.375 1.741 9.92-1.071l54.845-60.611zm-83.264-.001-54.666-173.156 54.847 60.613c2.553 2.823 6.821 3.285 9.919 1.071l.219-.157zm76.443-127.562-23.877-17.049 78.229-93.925 15.725 33.53zm-34.811-27.36-42.57-51.111h85.14zm-89.162-83.613c17.501 21.012 62.272 74.765 78.229 93.924l-23.878 17.049-70.077-77.443zm-39.096 200.158 21.511-59.244c1.328-3.657-.362-7.723-3.891-9.362l-43.499-20.2 37.997-58.998 94.43 299.111z" fill="#000000" data-original="#000000" style="" class=""/><path d="m414.935 443.021c7.536 0 13.668-6.132 13.668-13.669v-15.672c0-7.537-6.132-13.669-13.668-13.669h-104.726c-7.536 0-13.668 6.132-13.668 13.669v15.672c0 7.537 6.132 13.669 13.668 13.669zm-103.394-28.009h102.062v13.01h-102.062z" fill="#000000" data-original="#000000" style="" class=""/><path d="m263.501 472.072v-12.249c0-4.143-3.358-7.5-7.5-7.5s-7.5 3.357-7.5 7.5v12.249c0 4.143 3.358 7.5 7.5 7.5s7.5-3.357 7.5-7.5z" fill="#000000" data-original="#000000" style="" class=""/></g></g></g></svg>
